<svg xmlns="http://www.w3.org/2000/svg" viewBox="0 0 200 200"><path d="M29.54,171A100,100,0,0,0,170.46,29h0A100,100,0,1,0,29.54,171Z" transform="translate(0)" style="fill:#e9eae9"/><path d="M187.44,157.07H114l-6.39,6.21H82.28l-6-6.21H3.3v-111H187.44Z" transform="translate(0)" style="fill:#16c716"/><path d="M109.29,166.38H81.35L75,160.18H0V43H190.53v117.2H115.58Zm-25.47-6.2h22.89L113.1,154h71.25V49.2H6.39V154.09H77.53Z" transform="translate(0)" style="fill:#0c6b0c"/><path d="M101.76,150.87H95.37V55.29c0-9.91,6.39-18.52,19.07-18.52h57.22V144.66H114.44C108.05,144.66,103.93,146.36,101.76,150.87Z" transform="translate(0)" style="fill:#fff"/><path d="M103.62,154H92.28V55.29c0-12.91,8.86-21.52,22.16-21.52h60.32v114.1H114.44c-6.7,0-8.66,2.2-9.79,4.7Zm-5.16-6.1H99.8c3.82-5.61,10.21-6.21,14.64-6.21h53.93V40H114.44c-11.75,0-15.87,8-15.87,15.42V148h-.11Z" transform="translate(0)" style="fill:#0c6b0c"/><path d="M89,150.87h6.39V55.29c0-9.91-6.39-18.52-19.07-18.52H19.07V144.66H76.3C82.28,144.66,86.5,146.36,89,150.87Z" transform="translate(0)" style="fill:#fff"/><path d="M98.46,154H87.12l-.93-1.5c-1.34-2.4-3.09-4.7-9.79-4.7H16V33.67H76.3c13.3,0,22.16,8.61,22.16,21.52Zm-7.94-6.1h1.34V55.29c0-7.41-4.12-15.42-15.87-15.42H22.06V141.66H76c4.74,0,10.72.6,14.53,6.21Z" transform="translate(0)" style="fill:#0c6b0c"/><path d="M196.1,150.67l-56.19-39.84v67.56c0,2.2,1.55,2.8,3.5,1.3l15.88-14.81,15.26,26.22c1.34,2.2,4.43,2.41,6.7.9l6.4-4a5.08,5.08,0,0,0,2.26-6.2l-14.64-24.73h19.08C196.31,156.77,197.85,151.77,196.1,150.67Z" transform="translate(0)" style="fill:#fff"/><path d="M177.64,195.91a4.64,4.64,0,0,1-1.95-.3,6.35,6.35,0,0,1-4.44-3L158,169.78l-12.68,12a5.73,5.73,0,0,1-5.77,1.5c-2-.6-2.89-2.41-2.89-4.71v-74l61.24,43.54c2,1.3,2.48,3.4,2,6.2-.62,2.4-2.47,5.61-5.36,5.81H180.22l12.06,20c2,3.41.62,8-3.09,10.51l-6.39,4A16.88,16.88,0,0,1,177.64,195.91Zm-18.14-36,17.11,29.52a1.07,1.07,0,0,0,.62.3,4.37,4.37,0,0,0,2-.3l6.39-4c.93-.6,1.34-1.5.93-2.2L169,153.87h24.13c.31-.3.31-.6.62-1.3L142.9,116.44V175Zm-26-76.77h6.39V95.42h-6.39Zm-14.33,5.13,5.56-3,5.57,9.31-5.57,3Zm-9,11.3,3.09-5.4,9.59,5.4L119.8,105Zm-2.17,8.31h12.68v6.21H108.05Zm34.33-13.31L148,85.23l5.57,3L148,97.54Zm-32.27,27.52,9.59-5.4,3.09,5.4-9.58,5.41Z" transform="translate(0)" style="fill:#0c6b0c"/><path d="M89,150.87h6.39V55.29c0-9.91-4.43-20-14.64-23.42L35.05,18.26V126.15l45.68,13.31C86.09,141.66,87.74,145.66,89,150.87Z" transform="translate(0)" style="fill:#fff"/><path d="M95.37,154H89a2.92,2.92,0,0,1-3.1-2.4c-1.34-5.21-2.26-7.41-6-9L34.13,129.27a3,3,0,0,1-2.27-3v-108a2.52,2.52,0,0,1,1.34-2.41,6.39,6.39,0,0,1,2.89-.6L81.76,28.56c10.41,3.31,16.7,13.62,16.7,26.53v95.58A3.33,3.33,0,0,1,95.37,154Zm-4.23-6.1h.62V55.29c0-4-.93-16.62-12.37-20.62L37.84,22.56V124.05l43.51,12.71c6.39,2.5,8.66,6.4,9.79,11.11Z" transform="translate(0)" style="fill:#0c6b0c"/></svg>