<svg xmlns="http://www.w3.org/2000/svg" viewBox="0 0 16 16">
    <!-- 绿色 -->
    <g fill="rgba(63, 191, 63, 1)">
        <!-- 中间绿色两竖 -->
        <polygon points="6,0 5,4 6,5 5,8 6,11 5,12 6,16 7,15 7,11 6,8 7,5 7,1" />
        <polygon points="10,0 11,4 10,5 11,8, 10,11 11,12 10,16 9,15 9,11 10,8 9,5 9,1" />
        <!-- 中间绿色两横 -->
        <polygon points="3,3 3,4 13,4 13,3" />
        <polygon points="3,13 3,12 13,12 13,13" />
    </g>
    <!-- 灰色 -->
    <g fill="rgba(127, 127, 127, 1)">
        <!-- 左右边上两条灰色竖条 -->
        <polygon points="2,0 0,2 0,3 1,4 1,12 0,13 0,14 2,16 3,16 2,14 2,2 3,0" />
        <polygon points="14,0 16,2 16,3 15,4 15,12 16,13 16,14 14,16 13,16 14,14 14,2 13,0" />
        <!-- 中间四角的四个点 -->
        <polygon points="4,0 3,2 4,2 5,1 5,0" />
        <polygon points="12,0 13,2 12,2 11,1 11,0" />
        <polygon points="4,16 3,14 4,14 5,15 5,16" />
        <polygon points="12,16 13,14 12,14 11,15 11,16" />
        <!-- 左右靠近中间两条灰色竖条 -->
        <polygon points="4,5 3,6 3,10 4,11 5,11 4,9 4,7 5,5" />
        <polygon points="12,5 13,6 13,10 12,11 11,11 12,9 12,7 11,5" />
        <!-- 中间上下两个三角形 -->
        <polygon points="7,0 8,1 9,0" />
        <polygon points="7,16 8,15 9,16" />
        <!-- 正中央菱形 -->
        <polygon points="8,5 7,8 8,11 9,8" />
    </g>
</svg>
