<?xml version="1.0" encoding="UTF-8" standalone="no"?>
<!-- Created with Inkscape (http://www.inkscape.org/) -->

<svg
   width="210mm"
   height="297mm"
   viewBox="0 0 210 297"
   version="1.1"
   id="svg5"
   inkscape:version="1.2.2 (732a01da63, 2022-12-09)"
   sodipodi:docname="logo设计草图.svg"
   xmlns:inkscape="http://www.inkscape.org/namespaces/inkscape"
   xmlns:sodipodi="http://sodipodi.sourceforge.net/DTD/sodipodi-0.dtd"
   xmlns="http://www.w3.org/2000/svg"
   xmlns:svg="http://www.w3.org/2000/svg">
  <sodipodi:namedview
     id="namedview7"
     pagecolor="#ffffff"
     bordercolor="#000000"
     borderopacity="0.25"
     inkscape:showpageshadow="2"
     inkscape:pageopacity="0.0"
     inkscape:pagecheckerboard="0"
     inkscape:deskcolor="#d1d1d1"
     inkscape:document-units="mm"
     showgrid="true"
     inkscape:zoom="5.2402269"
     inkscape:cx="127.37998"
     inkscape:cy="88.6412"
     inkscape:current-layer="layer1"
     inkscape:lockguides="true">
    <inkscape:grid
       type="xygrid"
       id="grid1899" />
  </sodipodi:namedview>
  <defs
     id="defs2" />
  <g
     inkscape:label="图层 1"
     inkscape:groupmode="layer"
     id="layer1">
    <path
       style="fill:#ffe1ff;stroke-width:0.264583;fill-opacity:1"
       d="M 0,0 H 42.333333 V 42.333333 H 0 Z"
       id="path2005" />
    <path
       style="fill:#888888;fill-opacity:1;stroke-width:0.264583"
       d="M 37.041666,6.6666666e-8 42.333333,5.2916667 V 7.9375 L 39.6875,10.583333 V 31.75 l 2.645833,2.645833 v 2.645833 l -5.291667,5.291667 h -2.645833 l 2.645833,-5.291667 V 5.2916667 L 34.395833,6.6666666e-8 Z"
       id="path2637-2" />
    <path
       style="fill:#888888;fill-opacity:1;stroke-width:0.264583"
       d="M 5.2916673,2.3333333e-7 3.3333333e-7,5.2916669 V 7.9375002 L 2.6458333,10.583333 V 31.75 L 3.3333333e-7,34.395833 v 2.645833 L 5.2916673,42.333333 h 2.645833 L 5.2916673,37.041666 V 5.2916669 L 7.9375003,2.3333333e-7 Z"
       id="path2637-2-1" />
    <path
       style="fill:#888888;fill-opacity:1;stroke-width:0.264583"
       d="m 13.229167,13.229167 -2.645834,5.291666 V 23.8125 l 2.645834,5.291666 H 10.583333 L 7.9374999,26.458333 V 15.875 l 2.6458331,-2.645833 z"
       id="path4879" />
    <path
       style="fill:#888888;fill-opacity:1;stroke-width:0.264583"
       d="M 29.104166,13.229167 31.75,18.520833 V 23.8125 l -2.645834,5.291666 H 31.75 l 2.645833,-2.645833 V 15.875 L 31.75,13.229167 Z"
       id="path4879-7" />
    <path
       style="fill:#888888;fill-opacity:1;stroke-width:0.264583"
       d="M 7.9374999,5.2916666 10.583333,0 h 2.645834 v 2.6458333 l -2.645834,2.6458333 z"
       id="path4967" />
    <path
       style="fill:#888888;fill-opacity:1;stroke-width:0.264583"
       d="m 7.9375,37.041667 2.645833,5.291667 h 2.645834 v -2.645833 l -2.645834,-2.645834 z"
       id="path4967-0" />
    <path
       style="fill:#888888;fill-opacity:1;stroke-width:0.264583"
       d="M 34.395833,5.2916666 31.75,3.3333332e-8 H 29.104166 V 2.6458333 L 31.75,5.2916666 Z"
       id="path4967-1" />
    <path
       style="fill:#888888;fill-opacity:1;stroke-width:0.264583"
       d="M 34.395833,37.041667 31.75,42.333334 H 29.104166 V 39.687501 L 31.75,37.041667 Z"
       id="path4967-8" />
    <path
       style="fill:#96ff96;fill-opacity:1;stroke-width:0.264583"
       d="M 7.9374999,7.9374999 V 10.583333 H 34.395833 V 7.9374999 Z"
       id="path5688" />
    <path
       style="fill:#96ff96;fill-opacity:1;stroke-width:0.264583"
       d="m 7.9375006,31.75 v 2.645833 H 34.395833 V 31.75 Z"
       id="path5688-7" />
    <path
       style="fill:#96ff96;stroke-width:0.264583"
       d="M 26.458333,0 23.8125,2.6458333 v 7.9374997 2.645834 l 2.645833,7.937499 -2.645833,7.9375 V 39.6875 l 2.645833,2.645833 2.645833,-10.583333 -2.645833,-2.645834 2.645833,-7.9375 -2.645833,-7.937499 2.645833,-2.645834 z"
       id="path4695" />
    <path
       style="fill:#96ff96;stroke-width:0.264583"
       d="M 15.875,3.3333333e-7 18.520833,2.6458333 v 7.9374997 2.645834 l -2.645833,7.937499 2.645833,7.9375 V 39.6875 L 15.875,42.333333 13.229167,31.75 15.875,29.104166 13.229167,21.166666 15.875,13.229167 13.229167,10.583333 Z"
       id="path4695-6" />
    <path
       style="fill:#888888;fill-opacity:1;stroke-width:0.264583"
       d="m 21.166666,13.229167 -2.645833,7.937499 2.645833,7.9375 2.645834,-7.9375 z"
       id="path12789" />
  </g>
</svg>
