<svg baseProfile="full" xmlns="http://www.w3.org/2000/svg" viewBox="0 0 1400 800">

<!-- 最右侧绿色方块 -->
  <rect x="1300" y="400" rx="40" ry="40" width="300" height="300" stroke="#81C995" fill="#81C995">
    <animateTransform attributeType="XML" attributeName="transform" begin="0s" dur="20s" type="rotate" from="0 1450 550" to="360 1450 550" repeatCount="indefinite"/>
  </rect>

<!-- 中间角红色半圆 -->
    <path d="M100 150a150 150 0 1 1 400 0q0 20-20 20H120q-20 0-20-20" stroke="#EE675C" fill="#EE675C">
    <animateTransform attributeType="XML" attributeName="transform" begin="0s" dur="20s" type="rotate" from="0 430 530" to="360 830 0" repeatCount="indefinite"/>
  </path>

<!-- 右上角黄色半圆 -->
  <path d="M100 350a150 150 0 1 1 300 0q0 20-20 20H120q-20 0-20-20" stroke="#FDD663" fill="#FDD663">
    <animateMotion path="M 800 -200 L 800 -300 L 800 -200" dur="10s" begin="0s" repeatCount="indefinite"/>
    <animateTransform attributeType="XML" attributeName="transform" begin="0s" dur="15s" type="rotate" values="0 210 530 ; -30 210 530 ; 0 210 530" keyTimes="0 ; 0.5 ; 1" repeatCount="indefinite"/>
  </path>

<!-- 左上角蓝色圆点 -->
  <circle cx="200" cy="150" r="20" stroke="#1a73e8" fill="#1a73e8">
    <animateMotion path="M 0 0 L 40 20 Z" dur="5s" repeatCount="indefinite"/>
  </circle>

<!-- 左下角红色三角形 -->
  <path d="M165 580h105q5-2 0-10l-47-87q-3-3-6 0l-52 87q-5 8 0 10" stroke="#FDD663" fill="#FDD663">
    <animateTransform attributeType="XML" attributeName="transform" begin="0s" dur="20s" type="rotate" from="0 210 530" to="360 210 530" repeatCount="indefinite"/>
  </path>

<!-- 中央蓝色方块 -->
    <rect x="600" y="400" rx="40" ry="40" width="150" height="150" stroke="#1a73e8" fill="#1a73e8">
    <animateTransform attributeType="XML" attributeName="transform" begin="0s" dur="20s" type="rotate" from="0 650 550" to="360 650 550" repeatCount="indefinite"/>
  </rect>

<!-- 右下角灰色圆点 -->
  <circle cx="1200" cy="600" r="30" stroke="#F1F3F4" fill="#F1F3F4">
      <animateMotion path="M 0 0 L -20 40 Z" dur="5s" repeatCount="indefinite"/>
  </circle>

<!-- 左下角灰色圆条 -->
  <path d="M100 350a40 40 0 1 1 80 0v80a40 40 0 1 1-80 0Z" stroke="#F1F3F4" fill="#F1F3F4">
    <animateMotion path="M 140 390 L 180 360 L 140 390" dur="10s" begin="0s" repeatCount="indefinite"/>
    <animateTransform attributeType="XML" attributeName="transform" begin="0s" dur="15s" type="rotate" values="0 140 390; -60 140 390; 0 140 390" keyTimes="0 ; 0.5 ; 1" repeatCount="indefinite"/>
  </path>

<!-- 左下绿色方块 -->
  <rect x="400" y="600" rx="40" ry="40" width="100" height="100" stroke="#81C995" fill="#81C995">
    <animateTransform attributeType="XML" attributeName="transform" begin="0s" dur="20s" type="rotate" from="-30 550 750" to="330 550 750" repeatCount="indefinite"/>
  </rect>

</svg>