<svg id="adaf486b-f43a-48d3-b104-07e090729302" data-name="图层 1" xmlns="http://www.w3.org/2000/svg" viewBox="0 0 200 200">
  <defs>
    <style>
      .b1c5eadb-b4b9-4a32-9e5d-2658d8cb821b {
        fill: #eaeaea;
      }

      .aa02b356-699a-4073-a82c-462cf4ff17d4 {
        fill: #64b464;
      }

      .a69888cb-4801-4045-830c-aacaee0f55bc {
        fill: #404040;
      }

      .f8a47bf2-4fc2-44fd-b2d0-861bff92ec15 {
        fill: #fff;
      }

      .a7e0e09f-aac9-468d-b7fb-c35da1ddda3d {
        fill: #646464;
      }

      .fd1971b8-bb48-468f-b0e1-aa3d293d8489 {
        fill: #00f000;
      }
    </style>
  </defs>
  <g>
    <circle class="b1c5eadb-b4b9-4a32-9e5d-2658d8cb821b" cx="100" cy="100" r="100"/>
    <path class="aa02b356-699a-4073-a82c-462cf4ff17d4" d="M183.008,149.027H113.315l-6.1,5.92h-24l-5.7-5.92H8.2V43.342H183.008Z"/>
    <path class="a69888cb-4801-4045-830c-aacaee0f55bc" d="M108.815,157.857h-26.5l-6-5.92H5V40.432H185.928V152.037H114.715Zm-24.2-5.82h21.7l6.1-5.92h67.713V46.352H11.1v99.865H78.613Z"/>
    <path class="f8a47bf2-4fc2-44fd-b2d0-861bff92ec15" d="M101.714,143.117h-6.1v-91c0-9.421,6.1-17.641,18.1-17.641h54.292V137.2H113.715C107.614,137.2,103.714,138.8,101.714,143.117Z"/>
    <path class="a69888cb-4801-4045-830c-aacaee0f55bc" d="M103.414,146.117h-10.8v-94c0-12.331,8.4-20.451,21-20.451h57.392V140.307H113.715c-6.4,0-8.2,2.1-9.3,4.51Zm-4.9-5.81h1.3c3.6-5.321,9.7-5.921,13.9-5.921h51.212V37.572H113.715c-11.2,0-15.1,7.62-15.1,14.631v88.144Z"/>
    <path class="f8a47bf2-4fc2-44fd-b2d0-861bff92ec15" d="M89.514,143.117h6.1v-91c0-9.421-6.1-17.641-18.1-17.641H23.1V137.2H77.413C83.213,137.2,87.214,138.8,89.514,143.117Z"/>
    <path class="a69888cb-4801-4045-830c-aacaee0f55bc" d="M98.514,146.117h-10.8l-.9-1.4c-1.3-2.31-2.9-4.51-9.3-4.51H20.2V31.512H77.513c12.6,0,21,8.22,21,20.451ZM91,140.307h1.3V52.063c0-7-3.9-14.631-15.1-14.631H26v97H77.213c4.5,0,10.2.5,13.8,5.921Z"/>
    <path class="f8a47bf2-4fc2-44fd-b2d0-861bff92ec15" d="M191.228,142.917l-53.412-37.912v64.383c0,2.1,1.5,2.7,3.3,1.2l15.1-14.141,14.51,25c1.3,2.1,4.2,2.3,6.4.9l6.1-3.81a4.75,4.75,0,0,0,2.1-5.92l-13.9-23.561h18.1c1.9-.33,3.4-5.04,1.7-6.14Z"/>
    <path class="f8a47bf2-4fc2-44fd-b2d0-861bff92ec15" d="M89.514,143.117h6.1v-91c0-9.421-4.2-19.051-13.9-22.261L38.3,16.871V119.646l43.412,12.64C86.814,134.386,88.314,138.2,89.514,143.117Z"/>
    <path class="a69888cb-4801-4045-830c-aacaee0f55bc" d="M95.614,146.117h-6a2.74,2.74,0,0,1-2.9-2.3c-1.3-4.921-2.1-7-5.7-8.521L37.5,122.576a2.891,2.891,0,0,1-2.2-2.81V16.871a2.4,2.4,0,0,1,1.3-2.3,6.609,6.609,0,0,1,2.7-.6l43.412,12.6c9.9,3.1,15.9,12.93,15.9,25.261v91.054A3.341,3.341,0,0,1,95.614,146.117Zm-4-5.81h.6V52.063c0-3.81-.9-15.841-11.7-19.651L41,20.981v96.665l41.311,12.13c6,2.31,8.2,6,9.3,10.531Z"/>
  </g>
  <g>
    <path class="a7e0e09f-aac9-468d-b7fb-c35da1ddda3d" d="M173.727,186.029a6.315,6.315,0,0,1-1.9-.3,5.934,5.934,0,0,1-4.2-2.811l-12.62-21.761-12,11.421a5.31,5.31,0,0,1-5.5,1.41c-1.9-.6-2.7-2.31-2.7-4.51V99l58.112,41.512c1.9,1.2,2.4,3.21,1.9,5.91-.6,2.31-2.3,5.32-5.1,5.52h-13.6l11.5,19c1.9,3.21.6,7.62-2.9,10l-6.1,3.81a20.634,20.634,0,0,1-4.891,1.281Zm-17.21-34.292,16.21,28.071a.858.858,0,0,0,.6.3,3.19,3.19,0,0,0,1.9-.3l6.1-3.81c.9-.6,1.3-1.4.9-2.1l-16.7-28h22.9c.3-.3.3-.6.6-1.2l-48.312-34.392v55.773Z"/>
    <path class="fd1971b8-bb48-468f-b0e1-aa3d293d8489" d="M108.135,99.325h11.4v4.75h-11.4Zm9.65-19.851,5.7,9.87,4.11-2.37-5.7-9.88ZM130.315,74V85.4h4.751V74Zm13.591,1.57-5.7,9.88,4.12,2.37,5.7-9.87Zm-22.8,31.271-9.87,5.7,2.38,4.11,9.87-5.7ZM154.918,83.69l-9.911,5.65,2.37,4.12,9.881-5.7Zm-45.252,6.84,9.87,5.7,2.38-4.121-9.91-5.75Zm50.722,5.7H149.006v4.75h11.4Zm-35.772,28.541,5.7-9.871-4.11-2.38-5.7,9.871Z"/>
  </g>
</svg>
