<svg xmlns="http://www.w3.org/2000/svg" viewBox="0 0 200 200"><path d="M29.57,171A100,100,0,0,0,170.52,29h0a100,100,0,1,0-141,142Z" transform="translate(0 0)" style="fill:#e9eae9"/><path d="M176.22,200H24.67a3.76,3.76,0,0,1-3.7-3.7h0V178a3.76,3.76,0,0,1,3.7-3.7H176.32A3.76,3.76,0,0,1,180,178h0V196.3a3.78,3.78,0,0,1-3.8,3.7ZM28.37,192.51H172.52v-10.9H28.37Z" transform="translate(0 0)" style="fill:#084b08"/><circle cx="95.95" cy="59.95" r="43.49" style="fill:#fff"/><path d="M104.44,16A45.74,45.74,0,0,0,58.66,59.55h0V162h92v-100A46.38,46.38,0,0,0,104.44,16Z" transform="translate(0 0)" style="fill:#406b40"/><path d="M159.53,181.81H36.26a3.75,3.75,0,0,1-3.69-3.7v-15a3.75,3.75,0,0,1,3.69-3.7H159.63a3.76,3.76,0,0,1,3.69,3.7v15A3.91,3.91,0,0,1,159.53,181.81ZM40,174.21H155.83v-7.4H40Z" transform="translate(0 0)" style="fill:#084b08"/><rect x="52.46" y="52.96" width="6.1" height="106.26" style="fill:#fff"/><path d="M143.13,166.81H48.66a3.75,3.75,0,0,1-3.7-3.69h0V57.65a2.74,2.74,0,0,1,.1-.89A51,51,0,0,1,146.93,60V163a3.71,3.71,0,0,1-3.7,3.79Zm-90.67-7.59h87.07V59.85a43.57,43.57,0,0,0-87.07-2.2V159.22Z" transform="translate(0 0)" style="fill:#084b08"/><path d="M154.43,45.06a3.75,3.75,0,0,1-3.6-2.7,47,47,0,0,0-4.1-9.5,42.64,42.64,0,0,0-19.09-17.49,3.93,3.93,0,0,1-1.9-5.1,3.8,3.8,0,0,1,5.09-1.9A50.68,50.68,0,0,1,157.93,40a3.75,3.75,0,0,1-2.5,4.7h-.1a1.22,1.22,0,0,1-.9.4Zm2,93a3.76,3.76,0,0,1-3.7-3.7h0V54.66a3.7,3.7,0,1,1,7.39,0h0v79.67a3.68,3.68,0,0,1-3.69,3.7ZM114.64,65.45H74a3.7,3.7,0,0,1-3.8-3.6v-.1a3.59,3.59,0,0,1,3.4-3.8h41.19a3.76,3.76,0,0,1,3.7,3.7h0A3.86,3.86,0,0,1,114.64,65.45Z" transform="translate(0 0)" style="fill:#084b08"/><path d="M86.35,93.24a3.76,3.76,0,0,1-3.7-3.7h0V48.76a3.8,3.8,0,1,1,7.6,0V89.44A4,4,0,0,1,86.35,93.24Z" transform="translate(0 0)" style="fill:#084b08"/><rect x="28.37" y="181.81" width="144.15" height="10.9" style="fill:#fff"/><rect x="39.96" y="166.81" width="115.86" height="7.4" style="fill:#fff"/><path d="M101.94,93.24a3.76,3.76,0,0,1-3.7-3.7h0V48.76a3.8,3.8,0,0,1,7.6,0V89.44A4.1,4.1,0,0,1,101.94,93.24Z" transform="translate(0 0)" style="fill:#084b08"/><path d="M118.44,77.15a3.76,3.76,0,0,1-3.7,3.7H73.85a3.8,3.8,0,1,1,0-7.6h40.69A4.12,4.12,0,0,1,118.44,77.15Z" transform="translate(0 0)" style="fill:#084b08"/></svg>