<svg id="f9efb1e9-43f2-4ae2-a844-fe8e5a60d85e" data-name="图层 1" xmlns="http://www.w3.org/2000/svg" viewBox="0 0 199.759 199.761">
  <defs>
    <style>
      .eacdca5c-a0db-4eec-9a12-f49a1963f0a2 {
        fill: #eaeaea;
      }

      .e3076706-2ca3-4426-af18-84516ce3cbe1 {
        fill: #fff;
      }

      .be8567e2-c5d5-438f-ad2c-e40bbaa2ad3f {
        fill: #78b478;
      }

      .b2e868fc-12c7-49aa-a5ce-8df361578acb {
        fill: #404040;
      }

      .aebcad34-d097-4321-b6c9-2e17344740aa {
        fill: #646464;
      }
    </style>
  </defs>
  <g>
    <path class="eacdca5c-a0db-4eec-9a12-f49a1963f0a2" d="M29.575,171A100,100,0,0,0,170.425,29.01h0A100,100,0,0,0,29.575,171Z" transform="translate(-0.12 -0.125)"/>
    <path class="e3076706-2ca3-4426-af18-84516ce3cbe1" d="M55.626,154.145h81.449V55.318c-.1-23.937-18.5-43.235-40.994-43.135-21.518.1-39.215,18.1-40.425,40.915Z" transform="translate(-0.12 -0.125)"/>
    <path class="be8567e2-c5d5-438f-ad2c-e40bbaa2ad3f" d="M104.29,9.723c-22.818,0-41.725,19-42.825,43.3h0V155.005h86.059V55.468C147.324,30.231,128.017,9.823,104.29,9.723Z" transform="translate(-0.12 -0.125)"/>
    <path class="b2e868fc-12c7-49aa-a5ce-8df361578acb" d="M140.485,161.784h-88.4a3.519,3.519,0,0,1-3.414-3.621h0a.69.69,0,0,1,.005-.1h0V53.078a2.736,2.736,0,0,1,.1-.9C50.686,24.232,73.5,3.184,99.77,5.124c24.837,1.9,44.135,23.747,44.3,50.294V157.865a3.59,3.59,0,0,1-3.42,3.719l-.2.2Zm-84.859-7.639h81.449V55.318c-.1-23.937-18.5-43.235-40.994-43.135-21.518.1-39.215,18.1-40.425,40.915ZM152.893,41.869a3.419,3.419,0,0,1-3.319-2.709,45.412,45.412,0,0,0-3.82-9.449,41.985,41.985,0,0,0-17.9-17.4,4,4,0,0,1-1.81-5A3.459,3.459,0,0,1,130.5,5.292h0c.09.034.178.071.264.112h.11A49.792,49.792,0,0,1,156.213,36.88a3.719,3.719,0,0,1-2.32,4.619h-.1a1.219,1.219,0,0,1-.9.4Zm0,91.259a3.589,3.589,0,0,1-3.419-3.72h0V50.188a3.6,3.6,0,0,1,3.319-3.819,3.508,3.508,0,0,1,3.618,3.4v.526h0v79.12a3.609,3.609,0,0,1-3.5,3.719h-.022Z" transform="translate(-0.12 -0.125)"/>
  </g>
  <g>
    <path class="aebcad34-d097-4321-b6c9-2e17344740aa" d="M170.811,195H29.089a3.589,3.589,0,0,1-3.419-3.72h0v-18.2a3.729,3.729,0,0,1,3.419-3.72H170.911a3.591,3.591,0,0,1,3.42,3.72h0v18.2a3.68,3.68,0,0,1-3.52,3.72Z" transform="translate(-0.12 -0.125)"/>
    <rect class="e3076706-2ca3-4426-af18-84516ce3cbe1" x="32.349" y="176.577" width="134.833" height="10.859"/>
    <path class="aebcad34-d097-4321-b6c9-2e17344740aa" d="M155.533,176.7H40.308a3.59,3.59,0,0,1-3.42-3.7V158.2a3.661,3.661,0,0,1,3.42-3.72H155.633a3.59,3.59,0,0,1,3.44,3.72V173A3.739,3.739,0,0,1,155.533,176.7Z" transform="translate(-0.12 -0.125)"/>
    <rect class="e3076706-2ca3-4426-af18-84516ce3cbe1" x="43.707" y="161.9" width="108.286" height="7.239"/>
    <path class="b2e868fc-12c7-49aa-a5ce-8df361578acb" d="M120.777,73.4a3.72,3.72,0,0,1-3.409,3.72H79.153a3.641,3.641,0,0,1-3.523-3.753V73.3a3.7,3.7,0,0,1,3.52-3.819h37.995A4,4,0,0,1,120.777,73.4Zm0-17.7a3.718,3.718,0,0,1-3.409,3.719H79.153a3.641,3.641,0,0,1-3.523-3.753V55.6a3.7,3.7,0,0,1,3.52-3.82h37.995A4,4,0,0,1,120.777,55.7ZM89.461,41.869a3.73,3.73,0,0,1,3.72,3.42V83.494a3.639,3.639,0,0,1-3.752,3.522h-.068a3.7,3.7,0,0,1-3.819-3.52h0v-38A4,4,0,0,1,89.461,41.869Zm17.7,0a3.731,3.731,0,0,1,3.72,3.42V83.494a3.639,3.639,0,0,1-3.753,3.521h-.047a3.7,3.7,0,0,1-3.819-3.52h0v-38a4,4,0,0,1,3.9-3.631Z" transform="translate(-0.12 -0.125)"/>
  </g>
</svg>
