<svg xmlns="http://www.w3.org/2000/svg" viewBox="0 0 200 200">
  <defs>
    <style>
      .a {
        fill: #e9eae9;
      }

      .b {
        fill: #fff;
      }

      .c {
        fill: #dcb083;
      }

      .d {
        fill: #2a2b2b;
      }
    </style>
  </defs>
  <path class="a" d="M29.61,171A100,100,0,0,0,170.43,29h0A100,100,0,0,0,29.56,171Z" transform="translate(0 0)"/>
  <path class="b" d="M42.68,70l1.41-.2a11.14,11.14,0,0,1,12.59,9.47l5.76,40.63A11.15,11.15,0,0,1,53,132.45l-1.41.19A11.13,11.13,0,0,1,39,123.18L33.21,82.54A11.14,11.14,0,0,1,42.68,70Z" transform="translate(0 0)"/>
  <rect class="b" x="42.51" y="45.26" width="84.82" height="24.23" transform="translate(4.98 121.51) rotate(-72.78)"/>
  <rect class="b" x="93.17" y="3.76" width="10.19" height="32.56" transform="translate(11.95 71.1) rotate(-42.13)"/>
  <path class="b" d="M155.71,109.85h0a9.65,9.65,0,0,1,9.65,9.65v61.62a9.64,9.64,0,0,1-9.64,9.64h0a9.65,9.65,0,0,1-9.65-9.65V119.5a9.64,9.64,0,0,1,9.64-9.64Z" transform="translate(-37.7 247.43) rotate(-70.65)"/>
  <rect class="b" x="4.83" y="140.34" width="81.22" height="19.37" rx="9.68" transform="translate(-47.57 23.84) rotate(-19.54)"/>
  <path class="b" d="M100.06,192.89h0a8.37,8.37,0,0,1-8.37-8.37V140.64a8.37,8.37,0,0,1,8.37-8.37h0a8.37,8.37,0,0,1,8.37,8.37v43.88A8.37,8.37,0,0,1,100.06,192.89Z" transform="translate(0 0)"/>
  <path class="c" d="M55.73,128.12C41,110.25,51.88,96.35,49.23,75.17c0,0,20.32-.74,28,21.18C75,55.17,97.34,44.05,91.63,18.91c29.58,12.61,42.21,49.65,38.25,69.34,6.77-14.14,25.62-25.35,27.48-42.78,13.17,32.77,9.81,70.77-8,85.68l-17.23-1.73-13.43-1.5-7.5,8.32-8.43-5.42-13.9,5.42-4-6.83-10.23-3.32-7.92,2.56Z" transform="translate(0 0)"/>
  <path class="d" d="M189.32,144.31l-33.4-12.05c8.16-9,13-21.84,14-37.45,1.14-17.2-2.38-36.54-10.17-55.93a3.51,3.51,0,0,0-4.37-2.34,3.45,3.45,0,0,0-.63.25,4.36,4.36,0,0,0-2.11,3.41c-1.17,10.93-7.49,18.76-14.21,27-1.55,1.91-3.12,3.86-4.64,5.86a83.57,83.57,0,0,0-1.52-9.57c-.51-2.33-2.54-3.73-4.53-3.13a4.45,4.45,0,0,0-2.69,5.29c1.69,7.73,2,14.94,1,20.3a4.44,4.44,0,0,0,2.76,5.24,3.54,3.54,0,0,0,4.12-2.12c2.73-5.7,6.73-10.65,11-15.88,4.86-6,9.83-12.16,13-19.73,4.48,14.25,6.4,28.13,5.57,40.65-1,15.45-6.24,27.57-15.07,35.07l-18.62-6.73c-7.08-2.55-14.69,1.36-17.86,9.18-5.56-7-15-7.5-21-1-.3.32-.58.65-.86,1-3.17-7.82-10.78-11.73-17.86-9.18L47.7,131a4.34,4.34,0,0,0-.35-.49c-10.14-12.32-9.49-23.92-8.67-38.6A157,157,0,0,0,39,73.5a33.09,33.09,0,0,1,7.54,2.2c8,3.48,13.73,9.87,16.94,19a3.57,3.57,0,0,0,4.85,2.38,4.47,4.47,0,0,0,2.3-4.3c-1.26-23.48,4.75-38,10.06-50.73,4.09-9.81,8-19.18,7.43-30.57a71.1,71.1,0,0,1,21.39,19.73,3.38,3.38,0,0,0,4.68,1,2.8,2.8,0,0,0,.59-.49,4.89,4.89,0,0,0,.4-6.16C106.6,13.87,96,5.14,84.62.26c-1.93-.82-4.08.34-4.78,2.6a5.14,5.14,0,0,0-.1,2.61c2.78,12.19-1,21.27-5.78,32.75C69.67,48.56,64.53,60.91,63.28,78.4a37.24,37.24,0,0,0-28.61-14c-2.05.07-3.67,2.08-3.6,4.48a4,4,0,0,0,0,.49c1,7.56.55,14.86.15,21.91-.78,13.92-1.59,28.28,8.65,42.48l-29.1,10.56C2.87,147-1.69,156.62.59,165.85S11.11,180.41,19,177.76l.55-.2L80,155.72a14.46,14.46,0,0,0,5.11-3.21V182.6c0,9.61,6.66,17.4,14.89,17.4s14.88-7.79,14.88-17.4V152.51a14.5,14.5,0,0,0,5.1,3.21l60.5,21.84c7.81,3,16.22-2,18.77-11.14s-1.71-19-9.53-21.94l-.45-.17Zm-107-1.15a7.85,7.85,0,0,1-4.4,4.25L17.36,169.25c-3.93,1.39-8.09-1.2-9.28-5.8s1-9.4,4.89-10.83l60.49-21.83a6.42,6.42,0,0,1,5.67.62c3.64,2.24,5,7.5,3.12,11.75Zm25.24,39.44c0,4.81-3.33,8.7-7.44,8.7s-7.45-3.89-7.45-8.7V143.46c0-4.81,3.34-8.7,7.45-8.7s7.44,3.89,7.44,8.7ZM192,163.5c-1.22,4.59-5.38,7.17-9.31,5.75h0l-60.5-21.84c-3.93-1.43-6.12-6.31-4.9-10.89,1-3.63,3.83-6.11,7.08-6.12a6.35,6.35,0,0,1,2.21.39l60.5,21.83c3.92,1.43,6.12,6.29,4.91,10.88Z" transform="translate(0 0)"/>
  <path class="d" d="M120.91,52a3.51,3.51,0,0,0,4.41,2.26,2.85,2.85,0,0,0,.59-.26,4.69,4.69,0,0,0,1.77-5.61,105.79,105.79,0,0,0-4.52-9.87,3.42,3.42,0,0,0-4.47-1.88A3.61,3.61,0,0,0,118,37a4.8,4.8,0,0,0-1.24,6A96.16,96.16,0,0,1,120.91,52Zm-32,27.16c-2-.66-4,.67-4.61,3-2.35,9.51-2.46,26.37-.2,31.65A3.48,3.48,0,0,0,88.51,116a4.41,4.41,0,0,0,.59-.26,4.73,4.73,0,0,0,1.67-5.84c-1-2.34-1.58-16.18.69-25.35a4.51,4.51,0,0,0-2.54-5.39Zm16.87,35.18c2,.75,4-.5,4.69-2.78h0c4.55-16.28,2.85-40.34-4.24-59.84-.8-2.22-3-3.25-4.88-2.31a4.66,4.66,0,0,0-2,5.71c6.33,17.43,8,39.53,4,53.74a4.57,4.57,0,0,0,2.39,5.49Z" transform="translate(0 0)"/>
</svg>
