<svg id="a6c3d8d5-7fe8-48fb-b351-034c2b24eb55" data-name="图层 1" xmlns="http://www.w3.org/2000/svg" viewBox="0 0 200 200">
  <defs>
    <style>
      .ad0c9f67-a95d-40f0-90e7-f2d794bfbc99 {
        fill: #eaeaea;
      }

      .fc942851-8dbb-4507-994d-0f82a9de262c {
        fill: #f0f064;
      }

      .bbd9c852-a779-40ab-879a-e519a844fd41 {
        fill: #ffa040;
      }

      .ae62a37c-ed5a-461e-8356-c4ebb3c2db8a {
        fill: #646464;
      }

      .ef80cc4e-fdeb-43ae-959e-d4b3d48ffb9b {
        fill: #404040;
      }

      .a424e30a-8eb7-4c13-b029-25cd7cafca05 {
        fill: #987654;
      }

      .b317c3cf-4321-46ca-8f63-cb833724e027 {
        fill: #00f000;
      }
    </style>
  </defs>
  <circle class="ad0c9f67-a95d-40f0-90e7-f2d794bfbc99" cx="100" cy="100" r="100"/>
  <path class="fc942851-8dbb-4507-994d-0f82a9de262c" d="M45.483,71.184,46.842,71a10.618,10.618,0,0,1,12,9l5.53,38.632a10.551,10.551,0,0,1-9,11.9h0l-1.33.19a10.62,10.62,0,0,1-12-8.941h0L36.534,83.165a10.531,10.531,0,0,1,8.819-12h.03Z"/>
  <rect class="fc942851-8dbb-4507-994d-0f82a9de262c" x="45.313" y="47.655" width="80.722" height="23.037" transform="translate(3.794 123.495) rotate(-72.784)"/>
  <polygon class="fc942851-8dbb-4507-994d-0f82a9de262c" points="84.436 15.401 91.635 8.891 112.461 31.902 105.253 38.412 84.436 15.401"/>
  <path class="bbd9c852-a779-40ab-879a-e519a844fd41" d="M57.861,126.477c-14-17-3.62-30.272-6.189-50.343,0,0,19.316-.67,26.655,20.171-2.09-39.212,19.137-49.872,13.708-73.763,28.2,12,40.183,47.212,36.474,66,6.479-13.431,24.375-24.061,26.175-40.742,12.578,31.221,9.349,67.393-7.609,81.574l-16.377-1.62-12.718-1.47-7.138,7.9-8-5.14L89.6,134.184l-3.809-6.47-9.808-3.14L68.5,127Z"/>
  <path class="ae62a37c-ed5a-461e-8356-c4ebb3c2db8a" d="M42.723,131.867,15,142.007c-17,5.331-10.95,37.493,7.807,31.782,3.339-1.8,61.889-20.941,62.989-24,1.13,12.57-5.709,45,14.147,45.212,19.907-.09,13-32.752,14.188-45.212-.86,2.09,60.46,22.751,62.459,23.791,19,6.48,25.716-26.261,8.469-31.692h0L153.3,130.367c19.807-23.221,15.328-59.193,3.62-88.895a3.288,3.288,0,0,0-4.087-2.22h-.1a3.9,3.9,0,0,0-2.569,3.521c-1.33,12.87-10.478,21.511-17.907,31.311-1-3.8.09-12.941-5.709-12.091a4.242,4.242,0,0,0-2.57,5c1.62,7.32,1.91,14.18,1,19.311-1.24,4,4.669,7.33,6.569,3,5.909-12.191,17.527-20.941,22.846-33.892,7.719,24.051,9.439,56.063-9,72.054-11.138-3.52-28.095-14.471-34.754,2.28a12.868,12.868,0,0,0-20.847,0c-7.149-18.361-27.625-3.71-39.423-.57"/>
  <path class="ef80cc4e-fdeb-43ae-959e-d4b3d48ffb9b" d="M153.264,130.377c19.807-23.221,15.328-59.193,3.62-88.9a3.288,3.288,0,0,0-4.087-2.22h-.1a3.9,3.9,0,0,0-2.569,3.521c-1.33,12.87-10.478,21.511-17.907,31.311-1-3.8.09-12.941-5.709-12.091a4.242,4.242,0,0,0-2.57,5c1.62,7.32,1.91,14.18,1,19.311-1.24,4,4.669,7.33,6.569,3,5.909-12.191,17.527-20.941,22.846-33.892,7.719,24.051,9.439,56.063-9,72.054"/>
  <path class="ef80cc4e-fdeb-43ae-959e-d4b3d48ffb9b" d="M50.242,129.237c-14.188-16.231-7.009-35.5-8.249-54.733,11,1.82,19.417,9,23.326,20.181,1.23,4.38,7.429,2.39,6.759-1.8-3-36.272,15.808-47.3,16.657-77.384a67.227,67.227,0,0,1,20.347,18.751,3.228,3.228,0,0,0,4.449,1h0c10-5.9-31-39.312-32.754-27.891,4.309,27.511-14.538,41.4-15.788,71.863-2.859-6.19-29.515-20.841-30.654-9,2.759,21.791-6.289,41,8.378,61.773"/>
  <path class="a424e30a-8eb7-4c13-b029-25cd7cafca05" d="M83.186,140.887a7,7,0,0,1-4.2,4L21.3,165.639c-3.72,1.34-7.719-1.14-8.859-5.521s1-9,4.66-10.28l57.61-20.751a6.156,6.156,0,0,1,5.439.57c3.509,2.09,4.749,7.15,3,11.24Z"/>
  <path class="a424e30a-8eb7-4c13-b029-25cd7cafca05" d="M107.272,178.349c0,4.57-3.139,8.281-7,8.281s-7-3.711-7-8.281V141.137c0-4.56,3.139-8.28,7-8.28s7,3.72,7,8.28Z"/>
  <path class="a424e30a-8eb7-4c13-b029-25cd7cafca05" d="M187.639,160.178c-1.14,4.37-5.14,6.851-8.849,5.511h0l-57.61-20.741c-3.71-1.341-5.809-6-4.669-10.381,1-3.43,3.619-5.8,6.759-5.8a4.878,4.878,0,0,1,2.1.38l57.6,20.761c3.72,1.33,5.809,5.9,4.67,10.28Z"/>
  <path class="ef80cc4e-fdeb-43ae-959e-d4b3d48ffb9b" d="M119.98,54.053a3.389,3.389,0,0,0,4.189,2.18l.57-.28a4.52,4.52,0,0,0,1.73-5.28,85.436,85.436,0,0,0-4.289-9.421,3.27,3.27,0,0,0-4.246-1.831h0a2.848,2.848,0,0,0-.679.38,4.561,4.561,0,0,0-1.14,5.721A83.076,83.076,0,0,1,119.98,54.053Z"/>
  <path class="b317c3cf-4321-46ca-8f63-cb833724e027" d="M89.475,79.944c-1.909-.68-3.819.66-4.389,2.84-2.19,9-2.38,25.132-.19,30.182a3.349,3.349,0,0,0,4.2,2.1h0l.57-.29a4.52,4.52,0,0,0,1.61-5.53c-1-2.18-1.52-15.411.67-24A4.4,4.4,0,0,0,89.475,80Z"/>
  <path class="b317c3cf-4321-46ca-8f63-cb833724e027" d="M105.563,113.346c1.9.76,3.8-.48,4.479-2.66h0c4.369-15.521,2.659-38.362-4-56.923a3.409,3.409,0,0,0-4.206-2.354h-.013a4.012,4.012,0,0,0-.45.16A4.461,4.461,0,0,0,99.464,57c6,16.561,7.618,37.6,3.819,51.123a4.23,4.23,0,0,0,2.28,5.24Z"/>
</svg>
